<svg width="686" height="686" viewBox="0 0 686 686" fill="none" xmlns="http://www.w3.org/2000/svg">
<path d="M307.596 45.4V34.306H328.322V97H315.938V45.4H307.596Z" fill="white"/>
<path d="M339.7 83.412C345.204 78.8253 349.59 75.0127 352.858 71.974C356.126 68.878 358.85 65.6673 361.028 62.342C363.207 59.0167 364.296 55.7487 364.296 52.538C364.296 49.614 363.608 47.3207 362.232 45.658C360.856 43.9953 358.735 43.164 355.868 43.164C353.002 43.164 350.794 44.1387 349.246 46.088C347.698 47.98 346.896 50.5887 346.838 53.914H335.142C335.372 47.034 337.407 41.8167 341.248 38.262C345.147 34.7073 350.078 32.93 356.04 32.93C362.576 32.93 367.593 34.6787 371.09 38.176C374.588 41.616 376.336 46.174 376.336 51.85C376.336 56.322 375.132 60.5933 372.724 64.664C370.316 68.7347 367.564 72.2893 364.468 75.328C361.372 78.3093 357.33 81.9213 352.342 86.164H377.712V96.14H335.228V87.196L339.7 83.412Z" fill="white"/>
<path d="M352.066 601.958C351.493 599.55 350.489 597.744 349.056 596.54C347.68 595.336 345.673 594.734 343.036 594.734C339.08 594.734 336.156 596.339 334.264 599.55C332.429 602.703 331.483 607.863 331.426 615.03C332.802 612.737 334.809 610.959 337.446 609.698C340.083 608.379 342.95 607.72 346.046 607.72C349.773 607.72 353.069 608.523 355.936 610.128C358.803 611.733 361.039 614.084 362.644 617.18C364.249 620.219 365.052 623.888 365.052 628.188C365.052 632.259 364.221 635.899 362.558 639.11C360.953 642.263 358.573 644.729 355.42 646.506C352.267 648.283 348.511 649.172 344.154 649.172C338.191 649.172 333.49 647.853 330.05 645.216C326.667 642.579 324.288 638.909 322.912 634.208C321.593 629.449 320.934 623.601 320.934 616.664C320.934 606.172 322.74 598.26 326.352 592.928C329.964 587.539 335.669 584.844 343.466 584.844C349.486 584.844 354.159 586.478 357.484 589.746C360.809 593.014 362.73 597.085 363.246 601.958H352.066ZM343.294 617.61C340.255 617.61 337.704 618.499 335.64 620.276C333.576 622.053 332.544 624.633 332.544 628.016C332.544 631.399 333.49 634.065 335.382 636.014C337.331 637.963 340.055 638.938 343.552 638.938C346.648 638.938 349.085 637.992 350.862 636.1C352.697 634.208 353.614 631.657 353.614 628.446C353.614 625.121 352.725 622.483 350.948 620.534C349.228 618.585 346.677 617.61 343.294 617.61Z" fill="white"/>
<path d="M51.49 354.37C51.9487 356.893 52.9807 358.842 54.586 360.218C56.2487 361.537 58.456 362.196 61.208 362.196C64.7627 362.196 67.3427 360.734 68.948 357.81C70.5533 354.829 71.356 349.841 71.356 342.846C70.0373 344.681 68.174 346.114 65.766 347.146C63.4153 348.178 60.864 348.694 58.112 348.694C54.4427 348.694 51.1173 347.949 48.136 346.458C45.212 344.91 42.89 342.645 41.17 339.664C39.45 336.625 38.59 332.956 38.59 328.656C38.59 322.292 40.482 317.247 44.266 313.52C48.05 309.736 53.21 307.844 59.746 307.844C67.8873 307.844 73.6207 310.453 76.946 315.67C80.3287 320.887 82.02 328.742 82.02 339.234C82.02 346.687 81.3607 352.793 80.042 357.552C78.7807 362.311 76.5733 365.923 73.42 368.388C70.324 370.853 66.0813 372.086 60.692 372.086C56.4493 372.086 52.8373 371.283 49.856 369.678C46.8747 368.015 44.5813 365.865 42.976 363.228C41.428 360.533 40.5393 357.581 40.31 354.37H51.49ZM60.606 338.89C63.5873 338.89 65.938 337.973 67.658 336.138C69.378 334.303 70.238 331.838 70.238 328.742C70.238 325.359 69.3207 322.751 67.486 320.916C65.7087 319.024 63.272 318.078 60.176 318.078C57.08 318.078 54.6147 319.053 52.78 321.002C51.0027 322.894 50.114 325.417 50.114 328.57C50.114 331.609 50.974 334.103 52.694 336.052C54.4713 337.944 57.1087 338.89 60.606 338.89Z" fill="white"/>
<path d="M600.73 325.818C601.017 320.085 603.023 315.67 606.75 312.574C610.534 309.421 615.493 307.844 621.628 307.844C625.813 307.844 629.397 308.589 632.378 310.08C635.359 311.513 637.595 313.491 639.086 316.014C640.634 318.479 641.408 321.289 641.408 324.442C641.408 328.054 640.462 331.121 638.57 333.644C636.735 336.109 634.528 337.772 631.948 338.632V338.976C635.273 340.008 637.853 341.843 639.688 344.48C641.58 347.117 642.526 350.5 642.526 354.628C642.526 358.068 641.723 361.135 640.118 363.83C638.57 366.525 636.248 368.646 633.152 370.194C630.113 371.685 626.444 372.43 622.144 372.43C615.665 372.43 610.391 370.796 606.32 367.528C602.249 364.26 600.099 359.444 599.87 353.08H611.566C611.681 355.889 612.627 358.154 614.404 359.874C616.239 361.537 618.733 362.368 621.886 362.368C624.81 362.368 627.046 361.565 628.594 359.96C630.199 358.297 631.002 356.176 631.002 353.596C631.002 350.156 629.913 347.691 627.734 346.2C625.555 344.709 622.173 343.964 617.586 343.964H615.092V334.074H617.586C625.727 334.074 629.798 331.351 629.798 325.904C629.798 323.439 629.053 321.518 627.562 320.142C626.129 318.766 624.036 318.078 621.284 318.078C618.589 318.078 616.497 318.823 615.006 320.314C613.573 321.747 612.741 323.582 612.512 325.818H600.73Z" fill="white"/>
<path d="M186.096 82.4V71.306H206.822V134H194.438V82.4H186.096Z" fill="white"/>
<path d="M210.374 82.4V71.306H231.1V134H218.716V82.4H210.374Z" fill="white"/>
<path d="M459.096 82.4V71.306H479.822V134H467.438V82.4H459.096Z" fill="white"/>
<path d="M86.096 201.4V190.306H106.822V253H94.438V201.4H86.096Z" fill="white"/>
<path d="M110.116 220.836C110.116 210.917 111.894 203.149 115.448 197.53C119.06 191.911 125.023 189.102 133.336 189.102C141.65 189.102 147.584 191.911 151.138 197.53C154.75 203.149 156.556 210.917 156.556 220.836C156.556 230.812 154.75 238.638 151.138 244.314C147.584 249.99 141.65 252.828 133.336 252.828C125.023 252.828 119.06 249.99 115.448 244.314C111.894 238.638 110.116 230.812 110.116 220.836ZM144.688 220.836C144.688 216.593 144.402 213.039 143.828 210.172C143.312 207.248 142.223 204.869 140.56 203.034C138.955 201.199 136.547 200.282 133.336 200.282C130.126 200.282 127.689 201.199 126.026 203.034C124.421 204.869 123.332 207.248 122.758 210.172C122.242 213.039 121.984 216.593 121.984 220.836C121.984 225.193 122.242 228.863 122.758 231.844C123.274 234.768 124.364 237.147 126.026 238.982C127.689 240.759 130.126 241.648 133.336 241.648C136.547 241.648 138.984 240.759 140.646 238.982C142.309 237.147 143.398 234.768 143.914 231.844C144.43 228.863 144.688 225.193 144.688 220.836Z" fill="white"/>
<path d="M555.342 239.412C560.846 234.825 565.232 231.013 568.5 227.974C571.768 224.878 574.491 221.667 576.67 218.342C578.849 215.017 579.938 211.749 579.938 208.538C579.938 205.614 579.25 203.321 577.874 201.658C576.498 199.995 574.377 199.164 571.51 199.164C568.643 199.164 566.436 200.139 564.888 202.088C563.34 203.98 562.537 206.589 562.48 209.914H550.784C551.013 203.034 553.049 197.817 556.89 194.262C560.789 190.707 565.719 188.93 571.682 188.93C578.218 188.93 583.235 190.679 586.732 194.176C590.229 197.616 591.978 202.174 591.978 207.85C591.978 212.322 590.774 216.593 588.366 220.664C585.958 224.735 583.206 228.289 580.11 231.328C577.014 234.309 572.972 237.921 567.984 242.164H593.354V252.14H550.87V243.196L555.342 239.412Z" fill="white"/>
<path d="M234.462 556.422L211.586 610H199.374L222.422 557.798H193.01V547.478H234.462V556.422Z" fill="white"/>
<path d="M490.698 557.712H462.834V572.418C464.038 570.927 465.758 569.723 467.994 568.806C470.23 567.831 472.609 567.344 475.132 567.344C479.719 567.344 483.474 568.347 486.398 570.354C489.322 572.361 491.443 574.941 492.762 578.094C494.081 581.19 494.74 584.515 494.74 588.07C494.74 594.663 492.848 599.967 489.064 603.98C485.337 607.993 480.005 610 473.068 610C466.532 610 461.315 608.366 457.416 605.098C453.517 601.83 451.31 597.559 450.794 592.284H462.49C463.006 594.577 464.153 596.412 465.93 597.788C467.765 599.164 470.087 599.852 472.896 599.852C476.279 599.852 478.83 598.791 480.55 596.67C482.27 594.549 483.13 591.739 483.13 588.242C483.13 584.687 482.241 581.993 480.464 580.158C478.744 578.266 476.193 577.32 472.81 577.32C470.402 577.32 468.395 577.922 466.79 579.126C465.185 580.33 464.038 581.935 463.35 583.942H451.826V547.134H490.698V557.712Z" fill="white"/>
<path d="M105.05 457.804C99.3167 454.823 96.45 450.207 96.45 443.958C96.45 440.862 97.224 438.053 98.772 435.53C100.377 432.95 102.757 430.915 105.91 429.424C109.121 427.876 113.019 427.102 117.606 427.102C122.193 427.102 126.063 427.876 129.216 429.424C132.427 430.915 134.806 432.95 136.354 435.53C137.959 438.053 138.762 440.862 138.762 443.958C138.762 447.111 137.988 449.892 136.44 452.3C134.892 454.651 132.828 456.485 130.248 457.804C133.401 459.18 135.867 461.187 137.644 463.824C139.421 466.461 140.31 469.586 140.31 473.198C140.31 477.097 139.307 480.508 137.3 483.432C135.351 486.299 132.656 488.506 129.216 490.054C125.776 491.602 121.906 492.376 117.606 492.376C113.306 492.376 109.436 491.602 105.996 490.054C102.613 488.506 99.9187 486.299 97.912 483.432C95.9627 480.508 94.988 477.097 94.988 473.198C94.988 469.586 95.8767 466.461 97.654 463.824C99.4313 461.129 101.897 459.123 105.05 457.804ZM127.066 445.678C127.066 442.869 126.206 440.69 124.486 439.142C122.823 437.594 120.53 436.82 117.606 436.82C114.739 436.82 112.446 437.594 110.726 439.142C109.063 440.69 108.232 442.897 108.232 445.764C108.232 448.344 109.092 450.408 110.812 451.956C112.589 453.504 114.854 454.278 117.606 454.278C120.358 454.278 122.623 453.504 124.4 451.956C126.177 450.351 127.066 448.258 127.066 445.678ZM117.606 463.05C114.338 463.05 111.672 463.881 109.608 465.544C107.601 467.207 106.598 469.586 106.598 472.682C106.598 475.549 107.573 477.899 109.522 479.734C111.529 481.511 114.223 482.4 117.606 482.4C120.989 482.4 123.655 481.483 125.604 479.648C127.553 477.813 128.528 475.491 128.528 472.682C128.528 469.643 127.525 467.293 125.518 465.63C123.511 463.91 120.874 463.05 117.606 463.05Z" fill="white"/>
<path d="M551.542 478.788V469.328L579.664 429.08H593.682V468.296H601.25V478.788H593.682V491H581.642V478.788H551.542ZM582.416 441.98L564.786 468.296H582.416V441.98Z" fill="white"/>
<path d="M352.507 10.0073C352.507 15.5342 348.026 20.0146 342.499 20.0146C336.972 20.0146 332.492 15.5342 332.492 10.0073C332.492 4.48042 336.972 0 342.499 0C348.026 0 352.507 4.48042 352.507 10.0073Z" fill="white"/>
<path d="M352.507 675.993C352.507 681.52 348.026 686 342.499 686C336.972 686 332.492 681.52 332.492 675.993C332.492 670.466 336.972 665.985 342.499 665.985C348.026 665.985 352.507 670.466 352.507 675.993Z" fill="white"/>
<path d="M20.0146 342C20.0146 347.527 15.5342 352.007 10.0073 352.007C4.48042 352.007 0 347.527 0 342C0 336.473 4.48042 331.993 10.0073 331.993C15.5342 331.993 20.0146 336.473 20.0146 342Z" fill="white"/>
<path d="M686 342C686 347.527 681.52 352.007 675.993 352.007C670.466 352.007 665.985 347.527 665.985 342C665.985 336.473 670.466 331.993 675.993 331.993C681.52 331.993 686 336.473 686 342Z" fill="white"/>
<path d="M186.264 54C186.264 59.5269 181.784 64.0073 176.257 64.0073C170.73 64.0073 166.25 59.5269 166.25 54C166.25 48.4731 170.73 43.9927 176.257 43.9927C181.784 43.9927 186.264 48.4731 186.264 54Z" fill="white"/>
<path d="M520.752 54C520.752 59.5269 516.271 64.0073 510.745 64.0073C505.218 64.0073 500.737 59.5269 500.737 54C500.737 48.4731 505.218 43.9927 510.745 43.9927C516.271 43.9927 520.752 48.4731 520.752 54Z" fill="white"/>
<path d="M65.0876 175C65.0876 180.527 60.6072 185.007 55.0803 185.007C49.5534 185.007 45.073 180.527 45.073 175C45.073 169.473 49.5534 164.993 55.0803 164.993C60.6072 164.993 65.0876 169.473 65.0876 175Z" fill="white"/>
<path d="M642.846 174.958C642.846 180.462 638.384 184.923 632.88 184.923C627.377 184.923 622.915 180.462 622.915 174.958C622.915 169.454 627.377 164.993 632.88 164.993C638.384 164.993 642.846 169.454 642.846 174.958Z" fill="white"/>
<path d="M186.264 631C186.264 636.527 181.784 641.007 176.257 641.007C170.73 641.007 166.25 636.527 166.25 631C166.25 625.473 170.73 620.993 176.257 620.993C181.784 620.993 186.264 625.473 186.264 631Z" fill="white"/>
<path d="M520.752 631C520.752 636.527 516.271 641.007 510.745 641.007C505.218 641.007 500.737 636.527 500.737 631C500.737 625.473 505.218 620.993 510.745 620.993C516.271 620.993 520.752 625.473 520.752 631Z" fill="white"/>
<path d="M65.0876 509C65.0876 514.527 60.6072 519.007 55.0803 519.007C49.5534 519.007 45.073 514.527 45.073 509C45.073 503.473 49.5534 498.993 55.0803 498.993C60.6072 498.993 65.0876 503.473 65.0876 509Z" fill="white"/>
<path d="M642.93 509C642.93 514.527 638.45 519.007 632.923 519.007C627.396 519.007 622.915 514.527 622.915 509C622.915 503.473 627.396 498.993 632.923 498.993C638.45 498.993 642.93 503.473 642.93 509Z" fill="white"/>
<path d="M79 147C79 149.761 76.7614 152 74 152C71.2386 152 69 149.761 69 147C69 144.239 71.2386 142 74 142C76.7614 142 79 144.239 79 147Z" fill="white"/>
<path d="M213 38C213 40.7614 210.761 43 208 43C205.239 43 203 40.7614 203 38C203 35.2386 205.239 33 208 33C210.761 33 213 35.2386 213 38Z" fill="white"/>
<path d="M474 38C474 40.7614 476.239 43 479 43C481.761 43 484 40.7614 484 38C484 35.2386 481.761 33 479 33C476.239 33 474 35.2386 474 38Z" fill="white"/>
<path d="M618 146C618 143.239 615.761 141 613 141C610.239 141 608 143.239 608 146C608 148.761 610.239 151 613 151C615.761 151 618 148.761 618 146Z" fill="white"/>
<path d="M680 307C680 304.239 677.761 302 675 302C672.239 302 670 304.239 670 307C670 309.761 672.239 312 675 312C677.761 312 680 309.761 680 307Z" fill="white"/>
<path d="M653 477C653 474.239 650.761 472 648 472C645.239 472 643 474.239 643 477C643 479.761 645.239 482 648 482C650.761 482 653 479.761 653 477Z" fill="white"/>
<path d="M101 120C101 122.761 98.7614 125 96 125C93.2386 125 91 122.761 91 120C91 117.239 93.2386 115 96 115C98.7614 115 101 117.239 101 120Z" fill="white"/>
<path d="M245 25C245 27.7614 242.761 30 240 30C237.239 30 235 27.7614 235 25C235 22.2386 237.239 20 240 20C242.761 20 245 22.2386 245 25Z" fill="white"/>
<path d="M442 25C442 27.7614 444.239 30 447 30C449.761 30 452 27.7614 452 25C452 22.2386 449.761 20 447 20C444.239 20 442 22.2386 442 25Z" fill="white"/>
<path d="M597 119C597 116.239 594.761 114 592 114C589.239 114 587 116.239 587 119C587 121.761 589.239 124 592 124C594.761 124 597 121.761 597 119Z" fill="white"/>
<path d="M674 272C674 269.239 671.761 267 669 267C666.239 267 664 269.239 664 272C664 274.761 666.239 277 669 277C671.761 277 674 274.761 674 272Z" fill="white"/>
<path d="M666 445C666 442.239 663.761 440 661 440C658.239 440 656 442.239 656 445C656 447.761 658.239 450 661 450C663.761 450 666 447.761 666 445Z" fill="white"/>
<path d="M125 96C125 98.7614 122.761 101 120 101C117.239 101 115 98.7614 115 96C115 93.2386 117.239 91 120 91C122.761 91 125 93.2386 125 96Z" fill="white"/>
<path d="M280 16C280 18.7614 277.761 21 275 21C272.239 21 270 18.7614 270 16C270 13.2386 272.239 11 275 11C277.761 11 280 13.2386 280 16Z" fill="white"/>
<path d="M408 16C408 18.7614 410.239 21 413 21C415.761 21 418 18.7614 418 16C418 13.2386 415.761 11 413 11C410.239 11 408 13.2386 408 16Z" fill="white"/>
<path d="M571 93C571 90.2386 568.761 88 566 88C563.239 88 561 90.2386 561 93C561 95.7614 563.239 98 566 98C568.761 98 571 95.7614 571 93Z" fill="white"/>
<path d="M666 239C666 236.239 663.761 234 661 234C658.239 234 656 236.239 656 239C656 241.761 658.239 244 661 244C663.761 244 666 241.761 666 239Z" fill="white"/>
<path d="M674 411C674 408.239 671.761 406 669 406C666.239 406 664 408.239 664 411C664 413.761 666.239 416 669 416C671.761 416 674 413.761 674 411Z" fill="white"/>
<path d="M152 74C152 76.7614 149.761 79 147 79C144.239 79 142 76.7614 142 74C142 71.2386 144.239 69 147 69C149.761 69 152 71.2386 152 74Z" fill="white"/>
<path d="M17.0212 308C17.0212 310.763 14.781 313.004 12.0175 313.004C9.25408 313.004 7.01387 310.763 7.01387 308C7.01387 305.237 9.25408 302.996 12.0175 302.996C14.781 302.996 17.0212 305.237 17.0212 308Z" fill="white"/>
<path d="M17.0212 376C17.0212 373.237 14.781 370.996 12.0175 370.996C9.25408 370.996 7.01387 373.237 7.01387 376C7.01387 378.763 9.25408 381.004 12.0175 381.004C14.781 381.004 17.0212 378.763 17.0212 376Z" fill="white"/>
<path d="M79 537C79 534.239 76.7614 532 74 532C71.2386 532 69 534.239 69 537C69 539.761 71.2386 542 74 542C76.7614 542 79 539.761 79 537Z" fill="white"/>
<path d="M213 645C213 642.239 210.761 640 208 640C205.239 640 203 642.239 203 645C203 647.761 205.239 650 208 650C210.761 650 213 647.761 213 645Z" fill="white"/>
<path d="M382 672C382 669.239 379.761 667 377 667C374.239 667 372 669.239 372 672C372 674.761 374.239 677 377 677C379.761 677 382 674.761 382 672Z" fill="white"/>
<path d="M618 537C618 534.239 615.761 532 613 532C610.239 532 608 534.239 608 537C608 539.761 610.239 542 613 542C615.761 542 618 539.761 618 537Z" fill="white"/>
<path d="M22.0285 273C22.0285 275.763 19.7883 278.004 17.0248 278.004C14.2614 278.004 12.0212 275.763 12.0212 273C12.0212 270.237 14.2614 267.996 17.0248 267.996C19.7883 267.996 22.0285 270.237 22.0285 273Z" fill="white"/>
<path d="M22.0285 412C22.0285 409.237 19.7883 406.996 17.0248 406.996C14.2614 406.996 12.0212 409.237 12.0212 412C12.0212 414.763 14.2614 417.004 17.0248 417.004C19.7883 417.004 22.0285 414.763 22.0285 412Z" fill="white"/>
<path d="M101 564C101 561.239 98.7614 559 96 559C93.2386 559 91 561.239 91 564C91 566.761 93.2386 569 96 569C98.7614 569 101 566.761 101 564Z" fill="white"/>
<path d="M417 667C417 664.239 414.761 662 412 662C409.239 662 407 664.239 407 667C407 669.761 409.239 672 412 672C414.761 672 417 669.761 417 667Z" fill="white"/>
<path d="M245 658C245 655.239 242.761 653 240 653C237.239 653 235 655.239 235 658C235 660.761 237.239 663 240 663C242.761 663 245 660.761 245 658Z" fill="white"/>
<path d="M597 564C597 561.239 594.761 559 592 559C589.239 559 587 561.239 587 564C587 566.761 589.239 569 592 569C594.761 569 597 566.761 597 564Z" fill="white"/>
<path d="M43.0591 207C43.0591 209.763 40.8189 212.004 38.0555 212.004C35.292 212.004 33.0518 209.763 33.0518 207C33.0518 204.237 35.292 201.996 38.0555 201.996C40.8189 201.996 43.0591 204.237 43.0591 207Z" fill="white"/>
<path d="M43.0591 478C43.0591 475.237 40.8189 472.996 38.0555 472.996C35.292 472.996 33.0518 475.237 33.0518 478C33.0518 480.763 35.292 483.004 38.0555 483.004C40.8189 483.004 43.0591 480.763 43.0591 478Z" fill="white"/>
<path d="M484 645C484 642.239 481.761 640 479 640C476.239 640 474 642.239 474 645C474 647.761 476.239 650 479 650C481.761 650 484 647.761 484 645Z" fill="white"/>
<path d="M152 611C152 608.239 149.761 606 147 606C144.239 606 142 608.239 142 611C142 613.761 144.239 616 147 616C149.761 616 152 613.761 152 611Z" fill="white"/>
<path d="M313 672C313 669.239 310.761 667 308 667C305.239 667 303 669.239 303 672C303 674.761 305.239 677 308 677C310.761 677 313 674.761 313 672Z" fill="white"/>
<path d="M545 611C545 608.239 542.761 606 540 606C537.239 606 535 608.239 535 611C535 613.761 537.239 616 540 616C542.761 616 545 613.761 545 611Z" fill="white"/>
<path d="M31.0416 240C31.0416 242.763 28.8014 245.004 26.038 245.004C23.2745 245.004 21.0343 242.763 21.0343 240C21.0343 237.237 23.2745 234.996 26.038 234.996C28.8014 234.996 31.0416 237.237 31.0416 240Z" fill="white"/>
<path d="M452 658C452 655.239 449.761 653 447 653C444.239 653 442 655.239 442 658C442 660.761 444.239 663 447 663C449.761 663 452 660.761 452 658Z" fill="white"/>
<path d="M31.0416 446C31.0416 443.237 28.8014 440.996 26.038 440.996C23.2745 440.996 21.0343 443.237 21.0343 446C21.0343 448.763 23.2745 451.004 26.038 451.004C28.8014 451.004 31.0416 448.763 31.0416 446Z" fill="white"/>
<path d="M125 589C125 586.239 122.761 584 120 584C117.239 584 115 586.239 115 589C115 591.761 117.239 594 120 594C122.761 594 125 591.761 125 589Z" fill="white"/>
<path d="M279 667C279 664.239 276.761 662 274 662C271.239 662 269 664.239 269 667C269 669.761 271.239 672 274 672C276.761 672 279 669.761 279 667Z" fill="white"/>
<path d="M571 589C571 586.239 568.761 584 566 584C563.239 584 561 586.239 561 589C561 591.761 563.239 594 566 594C568.761 594 571 591.761 571 589Z" fill="white"/>
<path d="M313.453 11C313.453 13.7634 311.213 16.0036 308.45 16.0036C305.686 16.0036 303.446 13.7634 303.446 11C303.446 8.23656 305.686 5.99635 308.45 5.99635C311.213 5.99635 313.453 8.23656 313.453 11Z" fill="white"/>
<path d="M373 11C373 13.7614 375.239 16 378 16C380.761 16 383 13.7614 383 11C383 8.23858 380.761 6 378 6C375.239 6 373 8.23858 373 11Z" fill="white"/>
<path d="M545 73C545 70.2386 542.761 68 540 68C537.239 68 535 70.2386 535 73C535 75.7614 537.239 78 540 78C542.761 78 545 75.7614 545 73Z" fill="white"/>
<path d="M653 206C653 203.239 650.761 201 648 201C645.239 201 643 203.239 643 206C643 208.761 645.239 211 648 211C650.761 211 653 208.761 653 206Z" fill="white"/>
<path d="M680 375C680 372.239 677.761 370 675 370C672.239 370 670 372.239 670 375C670 377.761 672.239 380 675 380C677.761 380 680 377.761 680 375Z" fill="white"/>
</svg>
