<svg width="300" height="280" viewBox="0 0 300 280" fill="none" xmlns="http://www.w3.org/2000/svg">
<rect width="300" height="280" rx="27.1493" fill="black"/>
<path d="M118.693 131.762L126.903 139.972L118.953 147.921H74.3851L66.3054 139.842L74.3851 131.762H118.693ZM60.4412 199.136L56.4014 195.096V141.145H63.9597L64.481 141.796L72.5606 149.746V187.016L60.4412 199.136ZM62.2656 78.7231L66.3054 74.6833H127.033L131.073 78.7231L118.953 90.8425H74.3851L62.2656 78.7231ZM132.897 80.5475L136.937 84.5873V138.538H129.379L128.857 138.017L120.778 130.068V92.667L132.897 80.5475ZM131.073 200.96L127.033 205H66.3054L62.2656 200.96L74.3851 188.841H118.953L131.073 200.96ZM225.084 131.762L233.294 139.972L225.345 147.921H180.776L172.697 139.842L180.776 131.762H225.084ZM170.872 137.887L170.351 138.538H162.793V84.5873L166.833 80.5475L178.952 92.667V129.938L170.872 137.887ZM235.249 141.796L235.77 141.275H243.329V195.096L239.289 199.136L227.169 187.016V149.746L235.249 141.796ZM239.289 80.5475L243.329 84.5873V138.538H235.77L235.249 138.017L227.169 130.068V92.667L239.289 80.5475Z" fill="white"/>
</svg>
